<mxfile host="Electron" modified="2023-05-08T15:48:34.491Z" agent="Mozilla/5.0 (Windows NT 10.0; Win64; x64) AppleWebKit/537.36 (KHTML, like Gecko) draw.io/21.1.2 Chrome/106.0.5249.199 Electron/21.4.3 Safari/537.36" etag="8qnkHdfJyK41MN3hfY9l" version="21.1.2" type="device">
  <diagram name="PÃ¡gina-1" id="bImNXlKZqYxLvEkbQghu">
    <mxGraphModel dx="1381" dy="819" grid="1" gridSize="10" guides="1" tooltips="1" connect="1" arrows="1" fold="1" page="1" pageScale="1" pageWidth="827" pageHeight="1169" math="0" shadow="0">
      <root>
        <mxCell id="0" />
        <mxCell id="1" parent="0" />
        <mxCell id="KXUiJCTResrie-lP9J9d-3" style="edgeStyle=orthogonalEdgeStyle;rounded=0;orthogonalLoop=1;jettySize=auto;html=1;entryX=0;entryY=0.5;entryDx=0;entryDy=0;endArrow=none;endFill=0;" parent="1" source="KXUiJCTResrie-lP9J9d-1" target="KXUiJCTResrie-lP9J9d-2" edge="1">
          <mxGeometry relative="1" as="geometry" />
        </mxCell>
        <mxCell id="KXUiJCTResrie-lP9J9d-1" value="Empresa" style="shape=umlActor;verticalLabelPosition=bottom;verticalAlign=top;html=1;outlineConnect=0;" parent="1" vertex="1">
          <mxGeometry x="60" y="240" width="30" height="60" as="geometry" />
        </mxCell>
        <mxCell id="KXUiJCTResrie-lP9J9d-7" style="edgeStyle=orthogonalEdgeStyle;rounded=0;orthogonalLoop=1;jettySize=auto;html=1;entryX=0;entryY=0.5;entryDx=0;entryDy=0;startArrow=classic;startFill=1;endArrow=none;endFill=0;dashed=1;exitX=0.5;exitY=0;exitDx=0;exitDy=0;" parent="1" source="KXUiJCTResrie-lP9J9d-2" target="KXUiJCTResrie-lP9J9d-4" edge="1">
          <mxGeometry relative="1" as="geometry">
            <mxPoint x="270" y="160" as="sourcePoint" />
            <Array as="points">
              <mxPoint x="210" y="160" />
              <mxPoint x="300" y="160" />
              <mxPoint x="300" y="50" />
            </Array>
          </mxGeometry>
        </mxCell>
        <mxCell id="KXUiJCTResrie-lP9J9d-8" style="edgeStyle=orthogonalEdgeStyle;rounded=0;orthogonalLoop=1;jettySize=auto;html=1;entryX=0;entryY=0.5;entryDx=0;entryDy=0;startArrow=classic;startFill=1;endArrow=none;endFill=0;dashed=1;exitX=0.5;exitY=0;exitDx=0;exitDy=0;" parent="1" source="KXUiJCTResrie-lP9J9d-2" target="KXUiJCTResrie-lP9J9d-5" edge="1">
          <mxGeometry relative="1" as="geometry">
            <mxPoint x="270" y="160" as="sourcePoint" />
          </mxGeometry>
        </mxCell>
        <mxCell id="KXUiJCTResrie-lP9J9d-9" style="edgeStyle=orthogonalEdgeStyle;rounded=0;orthogonalLoop=1;jettySize=auto;html=1;entryX=0;entryY=0.5;entryDx=0;entryDy=0;startArrow=classic;startFill=1;endArrow=none;endFill=0;dashed=1;exitX=0.5;exitY=0;exitDx=0;exitDy=0;" parent="1" source="KXUiJCTResrie-lP9J9d-2" target="KXUiJCTResrie-lP9J9d-6" edge="1">
          <mxGeometry relative="1" as="geometry">
            <mxPoint x="270" y="160" as="sourcePoint" />
            <Array as="points">
              <mxPoint x="210" y="160" />
              <mxPoint x="300" y="160" />
              <mxPoint x="300" y="290" />
            </Array>
          </mxGeometry>
        </mxCell>
        <mxCell id="KXUiJCTResrie-lP9J9d-36" style="edgeStyle=orthogonalEdgeStyle;rounded=0;orthogonalLoop=1;jettySize=auto;html=1;entryX=0.5;entryY=0;entryDx=0;entryDy=0;dashed=1;" parent="1" source="KXUiJCTResrie-lP9J9d-2" target="KXUiJCTResrie-lP9J9d-34" edge="1">
          <mxGeometry relative="1" as="geometry" />
        </mxCell>
        <mxCell id="KXUiJCTResrie-lP9J9d-2" value="Gestiona inmueble" style="ellipse;whiteSpace=wrap;html=1;" parent="1" vertex="1">
          <mxGeometry x="150" y="230" width="120" height="80" as="geometry" />
        </mxCell>
        <mxCell id="KXUiJCTResrie-lP9J9d-4" value="Local" style="ellipse;whiteSpace=wrap;html=1;" parent="1" vertex="1">
          <mxGeometry x="370" y="10" width="120" height="80" as="geometry" />
        </mxCell>
        <mxCell id="KXUiJCTResrie-lP9J9d-5" value="Apartamento" style="ellipse;whiteSpace=wrap;html=1;" parent="1" vertex="1">
          <mxGeometry x="380" y="120" width="120" height="80" as="geometry" />
        </mxCell>
        <mxCell id="KXUiJCTResrie-lP9J9d-38" style="edgeStyle=orthogonalEdgeStyle;rounded=0;orthogonalLoop=1;jettySize=auto;html=1;entryX=1;entryY=0.5;entryDx=0;entryDy=0;exitX=0.5;exitY=1;exitDx=0;exitDy=0;dashed=1;" parent="1" source="KXUiJCTResrie-lP9J9d-6" target="KXUiJCTResrie-lP9J9d-34" edge="1">
          <mxGeometry relative="1" as="geometry" />
        </mxCell>
        <mxCell id="KXUiJCTResrie-lP9J9d-6" value="Edificio" style="ellipse;whiteSpace=wrap;html=1;" parent="1" vertex="1">
          <mxGeometry x="390" y="250" width="120" height="80" as="geometry" />
        </mxCell>
        <mxCell id="KXUiJCTResrie-lP9J9d-10" value="&amp;lt;&amp;lt;extends&amp;gt;&amp;gt;" style="text;html=1;strokeColor=none;fillColor=none;align=center;verticalAlign=middle;whiteSpace=wrap;rounded=0;" parent="1" vertex="1">
          <mxGeometry x="310" y="260" width="60" height="30" as="geometry" />
        </mxCell>
        <mxCell id="KXUiJCTResrie-lP9J9d-13" value="&amp;lt;&amp;lt;extends&amp;gt;&amp;gt;" style="text;html=1;strokeColor=none;fillColor=none;align=center;verticalAlign=middle;whiteSpace=wrap;rounded=0;" parent="1" vertex="1">
          <mxGeometry x="309" y="130" width="60" height="30" as="geometry" />
        </mxCell>
        <mxCell id="KXUiJCTResrie-lP9J9d-14" value="&amp;lt;&amp;lt;extends&amp;gt;&amp;gt;" style="text;html=1;strokeColor=none;fillColor=none;align=center;verticalAlign=middle;whiteSpace=wrap;rounded=0;" parent="1" vertex="1">
          <mxGeometry x="300" y="20" width="60" height="30" as="geometry" />
        </mxCell>
        <mxCell id="KXUiJCTResrie-lP9J9d-17" style="edgeStyle=orthogonalEdgeStyle;rounded=0;orthogonalLoop=1;jettySize=auto;html=1;entryX=1;entryY=0.5;entryDx=0;entryDy=0;dashed=1;exitX=0;exitY=0.5;exitDx=0;exitDy=0;" parent="1" source="KXUiJCTResrie-lP9J9d-15" target="KXUiJCTResrie-lP9J9d-6" edge="1">
          <mxGeometry relative="1" as="geometry">
            <Array as="points">
              <mxPoint x="560" y="250" />
              <mxPoint x="560" y="290" />
            </Array>
          </mxGeometry>
        </mxCell>
        <mxCell id="KXUiJCTResrie-lP9J9d-15" value="Local" style="ellipse;whiteSpace=wrap;html=1;" parent="1" vertex="1">
          <mxGeometry x="630" y="210" width="120" height="80" as="geometry" />
        </mxCell>
        <mxCell id="KXUiJCTResrie-lP9J9d-18" style="edgeStyle=orthogonalEdgeStyle;rounded=0;orthogonalLoop=1;jettySize=auto;html=1;dashed=1;" parent="1" source="KXUiJCTResrie-lP9J9d-16" target="KXUiJCTResrie-lP9J9d-6" edge="1">
          <mxGeometry relative="1" as="geometry">
            <Array as="points">
              <mxPoint x="560" y="355" />
              <mxPoint x="560" y="290" />
            </Array>
          </mxGeometry>
        </mxCell>
        <mxCell id="KXUiJCTResrie-lP9J9d-16" value="Apartamento" style="ellipse;whiteSpace=wrap;html=1;" parent="1" vertex="1">
          <mxGeometry x="630" y="315" width="120" height="80" as="geometry" />
        </mxCell>
        <mxCell id="KXUiJCTResrie-lP9J9d-19" value="&amp;lt;&amp;lt;extends&amp;gt;&amp;gt;" style="text;html=1;strokeColor=none;fillColor=none;align=center;verticalAlign=middle;whiteSpace=wrap;rounded=0;" parent="1" vertex="1">
          <mxGeometry x="566" y="220" width="60" height="30" as="geometry" />
        </mxCell>
        <mxCell id="KXUiJCTResrie-lP9J9d-20" value="&amp;lt;&amp;lt;extends&amp;gt;&amp;gt;" style="text;html=1;strokeColor=none;fillColor=none;align=center;verticalAlign=middle;whiteSpace=wrap;rounded=0;" parent="1" vertex="1">
          <mxGeometry x="570" y="320" width="60" height="30" as="geometry" />
        </mxCell>
        <mxCell id="KXUiJCTResrie-lP9J9d-26" style="edgeStyle=orthogonalEdgeStyle;rounded=0;orthogonalLoop=1;jettySize=auto;html=1;dashed=1;" parent="1" edge="1">
          <mxGeometry relative="1" as="geometry">
            <mxPoint x="180" y="630.5594681126693" as="sourcePoint" />
            <mxPoint x="210" y="429.44053188733074" as="targetPoint" />
            <Array as="points">
              <mxPoint x="180" y="520" />
              <mxPoint x="210" y="520" />
            </Array>
          </mxGeometry>
        </mxCell>
        <mxCell id="KXUiJCTResrie-lP9J9d-22" value="Introducir inmuebles nuevos" style="ellipse;whiteSpace=wrap;html=1;" parent="1" vertex="1">
          <mxGeometry x="120" y="630" width="120" height="80" as="geometry" />
        </mxCell>
        <mxCell id="KXUiJCTResrie-lP9J9d-27" style="edgeStyle=orthogonalEdgeStyle;rounded=0;orthogonalLoop=1;jettySize=auto;html=1;dashed=1;" parent="1" edge="1">
          <mxGeometry relative="1" as="geometry">
            <mxPoint x="329.99999999999994" y="635" as="sourcePoint" />
            <mxPoint x="209.99999999999994" y="429.6410161513776" as="targetPoint" />
            <Array as="points">
              <mxPoint x="330" y="510" />
              <mxPoint x="210" y="510" />
            </Array>
          </mxGeometry>
        </mxCell>
        <mxCell id="KXUiJCTResrie-lP9J9d-23" value="Dar de abaja inmuebles" style="ellipse;whiteSpace=wrap;html=1;" parent="1" vertex="1">
          <mxGeometry x="260" y="630" width="120" height="80" as="geometry" />
        </mxCell>
        <mxCell id="KXUiJCTResrie-lP9J9d-28" style="edgeStyle=orthogonalEdgeStyle;rounded=0;orthogonalLoop=1;jettySize=auto;html=1;dashed=1;entryX=0.5;entryY=1;entryDx=0;entryDy=0;" parent="1" source="KXUiJCTResrie-lP9J9d-24" target="KXUiJCTResrie-lP9J9d-34" edge="1">
          <mxGeometry relative="1" as="geometry">
            <mxPoint x="280" y="380" as="targetPoint" />
            <Array as="points">
              <mxPoint x="460" y="510" />
              <mxPoint x="210" y="510" />
            </Array>
          </mxGeometry>
        </mxCell>
        <mxCell id="KXUiJCTResrie-lP9J9d-24" value="Modificar inmuebles" style="ellipse;whiteSpace=wrap;html=1;" parent="1" vertex="1">
          <mxGeometry x="400" y="630" width="120" height="80" as="geometry" />
        </mxCell>
        <mxCell id="KXUiJCTResrie-lP9J9d-29" style="edgeStyle=orthogonalEdgeStyle;rounded=0;orthogonalLoop=1;jettySize=auto;html=1;dashed=1;entryX=0.5;entryY=1;entryDx=0;entryDy=0;" parent="1" source="KXUiJCTResrie-lP9J9d-25" target="KXUiJCTResrie-lP9J9d-34" edge="1">
          <mxGeometry relative="1" as="geometry">
            <Array as="points">
              <mxPoint x="590" y="510" />
              <mxPoint x="210" y="510" />
            </Array>
          </mxGeometry>
        </mxCell>
        <mxCell id="KXUiJCTResrie-lP9J9d-25" value="Consultar inmuebles" style="ellipse;whiteSpace=wrap;html=1;" parent="1" vertex="1">
          <mxGeometry x="530" y="630" width="120" height="80" as="geometry" />
        </mxCell>
        <mxCell id="KXUiJCTResrie-lP9J9d-30" value="&amp;lt;&amp;lt;extends&amp;gt;&amp;gt;" style="text;html=1;strokeColor=none;fillColor=none;align=center;verticalAlign=middle;whiteSpace=wrap;rounded=0;" parent="1" vertex="1">
          <mxGeometry x="190" y="575" width="60" height="30" as="geometry" />
        </mxCell>
        <mxCell id="KXUiJCTResrie-lP9J9d-31" value="&amp;lt;&amp;lt;extends&amp;gt;&amp;gt;" style="text;html=1;strokeColor=none;fillColor=none;align=center;verticalAlign=middle;whiteSpace=wrap;rounded=0;" parent="1" vertex="1">
          <mxGeometry x="290" y="530" width="60" height="30" as="geometry" />
        </mxCell>
        <mxCell id="KXUiJCTResrie-lP9J9d-32" value="&amp;lt;&amp;lt;extends&amp;gt;&amp;gt;" style="text;html=1;strokeColor=none;fillColor=none;align=center;verticalAlign=middle;whiteSpace=wrap;rounded=0;" parent="1" vertex="1">
          <mxGeometry x="400" y="580" width="60" height="30" as="geometry" />
        </mxCell>
        <mxCell id="KXUiJCTResrie-lP9J9d-33" value="&amp;lt;&amp;lt;extends&amp;gt;&amp;gt;" style="text;html=1;strokeColor=none;fillColor=none;align=center;verticalAlign=middle;whiteSpace=wrap;rounded=0;" parent="1" vertex="1">
          <mxGeometry x="520" y="580" width="60" height="30" as="geometry" />
        </mxCell>
        <mxCell id="KXUiJCTResrie-lP9J9d-34" value="Usar aplicaciÃ³n" style="ellipse;whiteSpace=wrap;html=1;" parent="1" vertex="1">
          <mxGeometry x="150" y="350" width="120" height="80" as="geometry" />
        </mxCell>
        <mxCell id="KXUiJCTResrie-lP9J9d-37" value="&amp;lt;&amp;lt;includes&amp;gt;&amp;gt;" style="text;html=1;strokeColor=none;fillColor=none;align=center;verticalAlign=middle;whiteSpace=wrap;rounded=0;" parent="1" vertex="1">
          <mxGeometry x="140" y="315" width="60" height="30" as="geometry" />
        </mxCell>
        <mxCell id="KXUiJCTResrie-lP9J9d-39" value="&amp;lt;&amp;lt;includes&amp;gt;&amp;gt;" style="text;html=1;strokeColor=none;fillColor=none;align=center;verticalAlign=middle;whiteSpace=wrap;rounded=0;" parent="1" vertex="1">
          <mxGeometry x="340" y="370" width="60" height="30" as="geometry" />
        </mxCell>
        <mxCell id="KXUiJCTResrie-lP9J9d-42" style="edgeStyle=orthogonalEdgeStyle;rounded=0;orthogonalLoop=1;jettySize=auto;html=1;entryX=0;entryY=0.5;entryDx=0;entryDy=0;endArrow=none;endFill=0;" parent="1" source="KXUiJCTResrie-lP9J9d-40" target="KXUiJCTResrie-lP9J9d-46" edge="1">
          <mxGeometry relative="1" as="geometry" />
        </mxCell>
        <mxCell id="KXUiJCTResrie-lP9J9d-40" value="Persona" style="shape=umlActor;verticalLabelPosition=bottom;verticalAlign=top;html=1;outlineConnect=0;" parent="1" vertex="1">
          <mxGeometry x="60" y="830" width="30" height="60" as="geometry" />
        </mxCell>
        <mxCell id="KXUiJCTResrie-lP9J9d-44" style="edgeStyle=orthogonalEdgeStyle;rounded=0;orthogonalLoop=1;jettySize=auto;html=1;entryX=1;entryY=1;entryDx=0;entryDy=0;dashed=1;exitX=0.5;exitY=0;exitDx=0;exitDy=0;" parent="1" source="KXUiJCTResrie-lP9J9d-46" target="KXUiJCTResrie-lP9J9d-34" edge="1">
          <mxGeometry relative="1" as="geometry">
            <Array as="points">
              <mxPoint x="220" y="760" />
              <mxPoint x="800" y="760" />
              <mxPoint x="800" y="418" />
            </Array>
          </mxGeometry>
        </mxCell>
        <mxCell id="KXUiJCTResrie-lP9J9d-41" value="Dar de alta" style="ellipse;whiteSpace=wrap;html=1;" parent="1" vertex="1">
          <mxGeometry x="400" y="790" width="120" height="80" as="geometry" />
        </mxCell>
        <mxCell id="KXUiJCTResrie-lP9J9d-45" value="&amp;lt;&amp;lt;includes&amp;gt;&amp;gt;" style="text;html=1;strokeColor=none;fillColor=none;align=center;verticalAlign=middle;whiteSpace=wrap;rounded=0;" parent="1" vertex="1">
          <mxGeometry x="490" y="390" width="60" height="30" as="geometry" />
        </mxCell>
        <mxCell id="KXUiJCTResrie-lP9J9d-50" style="edgeStyle=orthogonalEdgeStyle;rounded=0;orthogonalLoop=1;jettySize=auto;html=1;entryX=0;entryY=0.5;entryDx=0;entryDy=0;dashed=1;" parent="1" source="KXUiJCTResrie-lP9J9d-46" target="KXUiJCTResrie-lP9J9d-41" edge="1">
          <mxGeometry relative="1" as="geometry">
            <Array as="points">
              <mxPoint x="310" y="860" />
              <mxPoint x="310" y="830" />
            </Array>
          </mxGeometry>
        </mxCell>
        <mxCell id="KXUiJCTResrie-lP9J9d-51" style="edgeStyle=orthogonalEdgeStyle;rounded=0;orthogonalLoop=1;jettySize=auto;html=1;dashed=1;" parent="1" source="KXUiJCTResrie-lP9J9d-46" target="KXUiJCTResrie-lP9J9d-48" edge="1">
          <mxGeometry relative="1" as="geometry">
            <mxPoint x="350" y="950" as="targetPoint" />
            <Array as="points">
              <mxPoint x="310" y="860" />
              <mxPoint x="310" y="920" />
            </Array>
          </mxGeometry>
        </mxCell>
        <mxCell id="KXUiJCTResrie-lP9J9d-52" style="edgeStyle=orthogonalEdgeStyle;rounded=0;orthogonalLoop=1;jettySize=auto;html=1;entryX=0;entryY=0.5;entryDx=0;entryDy=0;dashed=1;" parent="1" source="KXUiJCTResrie-lP9J9d-46" target="KXUiJCTResrie-lP9J9d-49" edge="1">
          <mxGeometry relative="1" as="geometry">
            <Array as="points">
              <mxPoint x="310" y="860" />
              <mxPoint x="310" y="1020" />
            </Array>
          </mxGeometry>
        </mxCell>
        <mxCell id="KXUiJCTResrie-lP9J9d-53" style="edgeStyle=orthogonalEdgeStyle;rounded=0;orthogonalLoop=1;jettySize=auto;html=1;entryX=0;entryY=0.5;entryDx=0;entryDy=0;dashed=1;" parent="1" source="KXUiJCTResrie-lP9J9d-46" target="KXUiJCTResrie-lP9J9d-47" edge="1">
          <mxGeometry relative="1" as="geometry">
            <Array as="points">
              <mxPoint x="310" y="860" />
              <mxPoint x="310" y="1110" />
            </Array>
          </mxGeometry>
        </mxCell>
        <mxCell id="KXUiJCTResrie-lP9J9d-46" value="Gestionar usuarios" style="ellipse;whiteSpace=wrap;html=1;" parent="1" vertex="1">
          <mxGeometry x="160" y="820" width="120" height="80" as="geometry" />
        </mxCell>
        <mxCell id="KXUiJCTResrie-lP9J9d-47" value="Modificar datos" style="ellipse;whiteSpace=wrap;html=1;" parent="1" vertex="1">
          <mxGeometry x="400" y="1070" width="120" height="80" as="geometry" />
        </mxCell>
        <mxCell id="KXUiJCTResrie-lP9J9d-48" value="Dar de baja" style="ellipse;whiteSpace=wrap;html=1;" parent="1" vertex="1">
          <mxGeometry x="400" y="880" width="120" height="80" as="geometry" />
        </mxCell>
        <mxCell id="KXUiJCTResrie-lP9J9d-49" value="Consultar datos" style="ellipse;whiteSpace=wrap;html=1;" parent="1" vertex="1">
          <mxGeometry x="400" y="980" width="120" height="80" as="geometry" />
        </mxCell>
        <mxCell id="KXUiJCTResrie-lP9J9d-54" value="&amp;lt;&amp;lt;extends&amp;gt;&amp;gt;" style="text;html=1;strokeColor=none;fillColor=none;align=center;verticalAlign=middle;whiteSpace=wrap;rounded=0;" parent="1" vertex="1">
          <mxGeometry x="320" y="800" width="60" height="30" as="geometry" />
        </mxCell>
        <mxCell id="KXUiJCTResrie-lP9J9d-55" value="&amp;lt;&amp;lt;extends&amp;gt;&amp;gt;" style="text;html=1;strokeColor=none;fillColor=none;align=center;verticalAlign=middle;whiteSpace=wrap;rounded=0;" parent="1" vertex="1">
          <mxGeometry x="320" y="890" width="60" height="30" as="geometry" />
        </mxCell>
        <mxCell id="KXUiJCTResrie-lP9J9d-56" value="&amp;lt;&amp;lt;extends&amp;gt;&amp;gt;" style="text;html=1;strokeColor=none;fillColor=none;align=center;verticalAlign=middle;whiteSpace=wrap;rounded=0;" parent="1" vertex="1">
          <mxGeometry x="320" y="990" width="60" height="30" as="geometry" />
        </mxCell>
        <mxCell id="KXUiJCTResrie-lP9J9d-57" value="&amp;lt;&amp;lt;extends&amp;gt;&amp;gt;" style="text;html=1;strokeColor=none;fillColor=none;align=center;verticalAlign=middle;whiteSpace=wrap;rounded=0;" parent="1" vertex="1">
          <mxGeometry x="320" y="1080" width="60" height="30" as="geometry" />
        </mxCell>
        <mxCell id="KXUiJCTResrie-lP9J9d-63" style="edgeStyle=orthogonalEdgeStyle;rounded=0;orthogonalLoop=1;jettySize=auto;html=1;entryX=1;entryY=0.5;entryDx=0;entryDy=0;dashed=1;" parent="1" source="KXUiJCTResrie-lP9J9d-58" target="KXUiJCTResrie-lP9J9d-49" edge="1">
          <mxGeometry relative="1" as="geometry">
            <Array as="points">
              <mxPoint x="570" y="1060" />
              <mxPoint x="570" y="1020" />
            </Array>
          </mxGeometry>
        </mxCell>
        <mxCell id="KXUiJCTResrie-lP9J9d-64" style="edgeStyle=orthogonalEdgeStyle;rounded=0;orthogonalLoop=1;jettySize=auto;html=1;entryX=1;entryY=0.5;entryDx=0;entryDy=0;dashed=1;" parent="1" source="KXUiJCTResrie-lP9J9d-58" target="KXUiJCTResrie-lP9J9d-47" edge="1">
          <mxGeometry relative="1" as="geometry">
            <Array as="points">
              <mxPoint x="570" y="1060" />
              <mxPoint x="570" y="1110" />
            </Array>
          </mxGeometry>
        </mxCell>
        <mxCell id="KXUiJCTResrie-lP9J9d-67" style="edgeStyle=orthogonalEdgeStyle;rounded=0;orthogonalLoop=1;jettySize=auto;html=1;dashed=1;" parent="1" source="KXUiJCTResrie-lP9J9d-58" target="KXUiJCTResrie-lP9J9d-61" edge="1">
          <mxGeometry relative="1" as="geometry" />
        </mxCell>
        <mxCell id="KXUiJCTResrie-lP9J9d-58" value="Acceso web" style="ellipse;whiteSpace=wrap;html=1;" parent="1" vertex="1">
          <mxGeometry x="660" y="1020" width="120" height="80" as="geometry" />
        </mxCell>
        <mxCell id="KXUiJCTResrie-lP9J9d-61" value="IdentificaciÃ³n" style="ellipse;whiteSpace=wrap;html=1;" parent="1" vertex="1">
          <mxGeometry x="660" y="850" width="120" height="80" as="geometry" />
        </mxCell>
        <mxCell id="KXUiJCTResrie-lP9J9d-65" value="&amp;lt;&amp;lt;extends&amp;gt;&amp;gt;" style="text;html=1;strokeColor=none;fillColor=none;align=center;verticalAlign=middle;whiteSpace=wrap;rounded=0;" parent="1" vertex="1">
          <mxGeometry x="580" y="1030" width="60" height="30" as="geometry" />
        </mxCell>
        <mxCell id="KXUiJCTResrie-lP9J9d-68" value="&amp;lt;&amp;lt;includes&amp;gt;&amp;gt;" style="text;html=1;strokeColor=none;fillColor=none;align=center;verticalAlign=middle;whiteSpace=wrap;rounded=0;" parent="1" vertex="1">
          <mxGeometry x="650" y="960" width="60" height="30" as="geometry" />
        </mxCell>
        <mxCell id="8WbfdoTXyHr1HbjRjnSn-1" value="MÃ¡s que persona serÃ­a inquilino y gestor de la inmobiliaria" style="text;html=1;strokeColor=#666666;fillColor=#f5f5f5;align=center;verticalAlign=middle;whiteSpace=wrap;rounded=0;fontColor=#333333;" vertex="1" parent="1">
          <mxGeometry x="20" y="470" width="90" height="90" as="geometry" />
        </mxCell>
        <mxCell id="8WbfdoTXyHr1HbjRjnSn-2" value="En este diagrama de clase hay que diferencia entre cuÃ¡les son las posibles acciones que puede hacer cada actor. En este caso quizÃ¡ hay que tener una jerarquÃ­a de inmueble, pero no son acciones, sino cÃ³mo se organiza la informaciÃ³n, que serÃ­a para el diagrama de clases&amp;nbsp;&amp;nbsp;" style="text;html=1;strokeColor=#666666;fillColor=#f5f5f5;align=center;verticalAlign=middle;whiteSpace=wrap;rounded=0;fontColor=#333333;" vertex="1" parent="1">
          <mxGeometry x="566" y="40" width="234" height="130" as="geometry" />
        </mxCell>
        <mxCell id="8WbfdoTXyHr1HbjRjnSn-3" value="Puede gestionar inmueble y dar de alta y baja al inquilino&amp;nbsp;" style="text;html=1;strokeColor=#666666;fillColor=#f5f5f5;align=center;verticalAlign=middle;whiteSpace=wrap;rounded=0;fontColor=#333333;" vertex="1" parent="1">
          <mxGeometry x="254" y="440" width="170" height="60" as="geometry" />
        </mxCell>
        <mxCell id="8WbfdoTXyHr1HbjRjnSn-4" value="AquÃ­ irÃ­a el gestor&amp;nbsp; (no irÃ­a nada)" style="text;html=1;strokeColor=#666666;fillColor=#f5f5f5;align=center;verticalAlign=middle;whiteSpace=wrap;rounded=0;fontColor=#333333;" vertex="1" parent="1">
          <mxGeometry x="80" y="1010" width="70" height="50" as="geometry" />
        </mxCell>
        <mxCell id="8WbfdoTXyHr1HbjRjnSn-5" value="AquÃ­ irÃ­a el inquilino, que ademÃ¡s puede alquilar y desalquilar&amp;nbsp;" style="text;html=1;strokeColor=#666666;fillColor=#f5f5f5;align=center;verticalAlign=middle;whiteSpace=wrap;rounded=0;fontColor=#333333;" vertex="1" parent="1">
          <mxGeometry x="610" y="780" width="190" height="50" as="geometry" />
        </mxCell>
      </root>
    </mxGraphModel>
  </diagram>
</mxfile>
